<?xml version="1.0" encoding="UTF-8" standalone="no"?>
<svg
   data-name="Layer 1"
   viewBox="0 0 100 100"
   x="0px"
   y="0px"
   version="1.1"
   id="svg386"
   sodipodi:docname="simple-exec.svg"
   width="100"
   height="100"
   inkscape:version="1.1 (c68e22c387, 2021-05-23)"
   inkscape:export-filename="C:\code\adamralph\simple-exec\assets\simple-exec.png"
   inkscape:export-xdpi="192"
   inkscape:export-ydpi="192"
   xmlns:inkscape="http://www.inkscape.org/namespaces/inkscape"
   xmlns:sodipodi="http://sodipodi.sourceforge.net/DTD/sodipodi-0.dtd"
   xmlns="http://www.w3.org/2000/svg"
   xmlns:svg="http://www.w3.org/2000/svg"
   xmlns:rdf="http://www.w3.org/1999/02/22-rdf-syntax-ns#"
   xmlns:cc="http://creativecommons.org/ns#"
   xmlns:dc="http://purl.org/dc/elements/1.1/">
  <defs
     id="defs390" />
  <sodipodi:namedview
     id="namedview388"
     pagecolor="#505050"
     bordercolor="#eeeeee"
     borderopacity="1"
     inkscape:pageshadow="0"
     inkscape:pageopacity="0"
     inkscape:pagecheckerboard="0"
     showgrid="false"
     height="124px"
     inkscape:zoom="6.264"
     inkscape:cx="-1.2771392"
     inkscape:cy="62.5"
     inkscape:window-width="1920"
     inkscape:window-height="1001"
     inkscape:window-x="-9"
     inkscape:window-y="-9"
     inkscape:window-maximized="1"
     inkscape:current-layer="svg386" />
  <title
     id="title378">Artboard 11</title>
  <path
     d="m 10.65,56.94 15,3.43 6.86,-9.29 a 0.93,0.93 0 0 1 1.65,0.34 17.62,17.62 0 0 0 3.32,6.83 l 2.29,2.91 a 1.71,1.71 0 0 1 -0.14,2.27 l -7.36,7.36 a 5.86,5.86 0 0 1 -5.74,1.87 L 7.8,68.37 A 5.89,5.89 0 0 1 3.53,60.76 6.06,6.06 0 0 1 10.65,56.94 Z M 75.38,22.51 a 10.88,10.88 0 0 0 13,-8.19 10.89,10.89 0 1 0 -13,8.19 z M 41.57,11.07 a 4.79,4.79 0 0 0 -4.86,1.15 L 24.13,24.64 a 5,5 0 0 0 -0.41,6.77 4.84,4.84 0 0 0 7.06,0.27 L 41.36,21.24 50,25.75 41.15,39.27 a 13.71,13.71 0 0 0 1.06,15.5 L 54.95,71 46,90.41 a 6.06,6.06 0 0 0 1.4,7.17 5.93,5.93 0 0 0 2.6,1.27 5.61,5.61 0 0 0 0.68,0.11 5.92,5.92 0 0 0 6,-3.4 L 67.13,72.64 a 5.8,5.8 0 0 0 -0.63,-6 L 58.42,51.47 65.9,38.4 l 3.77,7.72 a 4.82,4.82 0 0 0 3.46,3 l 0.46,0.08 17.72,2.3 a 4.72,4.72 0 0 0 3.68,-1 4.81,4.81 0 0 0 1.78,-3.39 5,5 0 0 0 -4.44,-5.2 L 77.72,40 73.67,30 A 12.58,12.58 0 0 0 69.12,24.34 100.24,100.24 0 0 0 43.05,11.55 Z"
     id="path380"
     style="fill:#B3B3B3" />
  <metadata
     id="metadata792">
    <rdf:RDF>
      <cc:Work
         rdf:about="">
        <dc:title>Artboard 11</dc:title>
      </cc:Work>
    </rdf:RDF>
  </metadata>
</svg>
